<?xml version="1.0" encoding="utf-8"?>
<!-- Generator: Adobe Illustrator 25.0.0, SVG Export Plug-In . SVG Version: 6.00 Build 0)  -->
<svg version="1.1" id="Layer_1" xmlns="http://www.w3.org/2000/svg" xmlns:xlink="http://www.w3.org/1999/xlink" x="0px" y="0px"
	 viewBox="0 0 813.01 76.8" style="enable-background:new 0 0 813.01 76.8;" xml:space="preserve">
<style type="text/css">
	.st0{fill-rule:evenodd;clip-rule:evenodd;fill:#FFFFFF;}
	.st1{fill-rule:evenodd;clip-rule:evenodd;fill:#E94F32;}
	.st2{fill:#E94F33;}
	.st3{fill:#FFFFFF;}
</style>
<g>
	<g>
		<path class="st0" d="M66.31,11.65h-4c-3.26,0-3.41,0.17-4.06,2.83c0,0.01-6.7,30.76-7.24,33.27c-0.61-2.49-8.17-33.2-8.18-33.21
			c-0.7-2.7-0.88-2.9-4.17-2.9h-6.78c-3.29,0-3.41,0.24-4.19,2.88c0,0.01-8.03,30.26-8.67,32.66c-0.52-2.43-7.01-32.66-7.01-32.66
			c-0.64-2.65-0.79-2.87-4.05-2.87H3.7c-3.26,0-4.2,0.17-3.46,3.43l11.25,48.14c0.68,2.63,0.86,2.86,4.12,2.86h5.56
			c3.39,0,3.52-0.25,4.32-3.05c0-0.01,8.93-33.64,9.52-35.88c0.59,2.28,9.41,36.31,9.41,36.32c0.72,2.35,0.87,2.61,4.14,2.61h5.46
			c3.36,0,3.51-0.3,4.25-3.15L69.94,14.4C70.48,11.87,69.52,11.65,66.31,11.65"/>
		<path class="st0" d="M112.31,11.65h-3.94c-3.26,0-3.42,0.14-3.42,3.43v31.51c-1.15-1.87-20-32.52-20-32.52
			c-1.44-2.25-1.77-2.42-5-2.42h-4.17c-3.24,0-3.46,0.19-3.46,3.43v47.55c0,3.28,0.2,3.46,3.44,3.46h3.92
			c3.36,0,3.49-0.23,3.49-3.46V31.86c1.15,1.86,19.7,31.87,19.71,31.88c1.51,2.32,1.68,2.34,4.92,2.34h4.53
			c3.31,0,3.48-0.15,3.48-3.49V15.08C115.79,11.8,115.62,11.65,112.31,11.65"/>
		<path class="st0" d="M160,41.4c-1.46-2.36-3.5-4.25-6.06-5.61c-2.54-1.34-6.49-2.66-11.76-3.91c-5.17-1.23-8.46-2.41-9.77-3.51
			c-0.98-0.83-1.47-1.8-1.47-2.96c0-1.27,0.51-2.25,1.55-3.01c1.7-1.24,4.1-1.87,7.14-1.87c2.94,0,5.15,0.58,6.6,1.73
			c0.94,0.75,1.67,1.83,2.19,3.23c0.85,2.38,0.85,2.81,4.13,2.69l4.68-0.17c3.24-0.14,3.69-0.54,3.16-3.45
			c-0.68-3.71-2.41-6.81-5.18-9.23c-3.46-3.02-8.66-4.55-15.45-4.55c-4.15,0-7.76,0.64-10.7,1.9c-2.97,1.27-5.28,3.15-6.87,5.59
			c-1.58,2.43-2.39,5.09-2.39,7.89c0,4.35,1.7,8.08,5.06,11.1c2.37,2.13,6.53,3.95,12.35,5.41c4.47,1.12,7.37,1.9,8.61,2.34
			c1.77,0.63,3.02,1.37,3.71,2.2c0.69,0.82,1.02,1.8,1.02,2.98c0,1.86-0.82,3.45-2.5,4.86c-1.68,1.4-4.24,2.12-7.61,2.12
			c-3.17,0-5.72-0.8-7.57-2.38c-1.36-1.16-2.4-2.84-3.09-5c-0.71-2.56-0.83-2.89-4.12-2.58l-4.45,0.42
			c-3.24,0.28-3.59,0.56-3.01,3.14c0,0.01,1.7,7.54,6.27,11.63c3.64,3.26,9.03,4.83,15.87,4.83c4.69,0,8.66-0.67,11.82-1.99
			c3.18-1.34,5.68-3.41,7.42-6.16c1.74-2.75,2.62-5.73,2.62-8.88C162.2,46.72,161.46,43.77,160,41.4"/>
		<polyline class="st1" points="87.22,66.09 87.22,47.37 99.16,66.09 		"/>
	</g>
	<g>
		<g>
			<g>
				<path class="st2" d="M223.59,23.89c0-12.86,9.87-22.06,23.15-22.06c7.37,0,13.53,2.68,17.55,7.56l-6.34,5.85
					c-2.86-3.29-6.46-5-10.72-5c-7.98,0-13.65,5.61-13.65,13.65c0,8.04,5.67,13.65,13.65,13.65c4.26,0,7.86-1.71,10.72-5.06
					l6.34,5.85c-4.02,4.94-10.17,7.62-17.61,7.62C233.46,45.94,223.59,36.74,223.59,23.89z"/>
				<path class="st3" d="M302.55,26.44v18.77h-9.5v-17.3c0-5.3-2.44-7.74-6.64-7.74c-4.57,0-7.86,2.8-7.86,8.83v16.21h-9.5V0h9.5
					v15.84c2.56-2.56,6.21-3.9,10.42-3.9C296.7,11.94,302.55,16.45,302.55,26.44z"/>
				<path class="st3" d="M335.27,26.5v18.71h-8.9v-4.08c-1.77,2.99-5.18,4.57-9.99,4.57c-7.68,0-12.25-4.26-12.25-9.93
					c0-5.79,4.08-9.81,14.07-9.81h7.55c0-4.08-2.44-6.46-7.55-6.46c-3.47,0-7.07,1.16-9.44,3.05l-3.41-6.64
					c3.59-2.56,8.9-3.96,14.13-3.96C329.48,11.94,335.27,16.57,335.27,26.5z M325.76,34.85V31.5h-6.52c-4.45,0-5.85,1.65-5.85,3.84
					c0,2.38,2.01,3.96,5.36,3.96C321.92,39.3,324.67,37.84,325.76,34.85z"/>
				<path class="st3" d="M372.49,26.44v18.77h-9.5v-17.3c0-5.3-2.44-7.74-6.64-7.74c-4.57,0-7.86,2.8-7.86,8.83v16.21h-9.5V12.43
					h9.08v3.84c2.56-2.8,6.4-4.33,10.84-4.33C366.64,11.94,372.49,16.45,372.49,26.44z"/>
				<path class="st3" d="M410.39,12.43v27.3c0,12.19-6.58,17.79-18.4,17.79c-6.21,0-12.25-1.52-16.08-4.51l3.78-6.82
					c2.8,2.25,7.37,3.72,11.58,3.72c6.7,0,9.63-3.05,9.63-8.96v-1.4c-2.5,2.74-6.09,4.08-10.36,4.08c-9.08,0-16.39-6.28-16.39-15.84
					c0-9.57,7.31-15.84,16.39-15.84c4.57,0,8.35,1.52,10.84,4.69v-4.2H410.39z M401.01,27.79c0-4.81-3.59-8.04-8.59-8.04
					s-8.65,3.23-8.65,8.04c0,4.81,3.66,8.04,8.65,8.04S401.01,32.6,401.01,27.79z"/>
				<path class="st3" d="M446.27,31.5h-24.8c0.91,4.08,4.39,6.58,9.38,6.58c3.47,0,5.97-1.04,8.23-3.17l5.06,5.48
					c-3.05,3.47-7.62,5.3-13.53,5.3c-11.33,0-18.71-7.13-18.71-16.88c0-9.81,7.49-16.88,17.49-16.88c9.63,0,17.06,6.46,17.06,17
					C446.46,29.67,446.34,30.71,446.27,31.5z M421.35,25.96h16.15c-0.67-4.14-3.78-6.82-8.04-6.82
					C425.13,19.13,422.03,21.75,421.35,25.96z"/>
			</g>
		</g>
		<g>
			<g>
				<path class="st2" d="M475.3,10.48v11.27h19.74v7.92H475.3v15.54h-9.87V2.56h32.23v7.92H475.3z"/>
				<path class="st3" d="M530.99,12.43v32.78h-9.02v-3.9c-2.5,2.86-6.15,4.39-10.17,4.39c-8.23,0-14.01-4.63-14.01-14.75V12.43h9.5
					v17.12c0,5.48,2.44,7.92,6.64,7.92c4.39,0,7.55-2.8,7.55-8.83V12.43H530.99z"/>
				<path class="st3" d="M557.31,43.62c-1.95,1.4-4.81,2.07-7.74,2.07c-7.74,0-12.25-3.96-12.25-11.76V20.47h-5.06v-7.31h5.06V5.18
					h9.5v7.98h8.16v7.31h-8.16v13.34c0,2.8,1.52,4.33,4.08,4.33c1.4,0,2.8-0.43,3.84-1.22L557.31,43.62z"/>
				<path class="st3" d="M589.6,12.43v32.78h-9.02v-3.9c-2.5,2.86-6.15,4.39-10.17,4.39c-8.23,0-14.01-4.63-14.01-14.75V12.43h9.5
					v17.12c0,5.48,2.44,7.92,6.64,7.92c4.39,0,7.56-2.8,7.56-8.83V12.43H589.6z"/>
				<path class="st3" d="M612.69,11.94v8.77c-0.79-0.06-1.4-0.12-2.13-0.12c-5.24,0-8.71,2.86-8.71,9.14v15.48h-9.5V12.43h9.08v4.33
					C603.73,13.59,607.63,11.94,612.69,11.94z"/>
				<path class="st3" d="M645.1,31.5h-24.8c0.91,4.08,4.39,6.58,9.38,6.58c3.47,0,5.97-1.04,8.22-3.17l5.06,5.48
					c-3.05,3.47-7.62,5.3-13.53,5.3c-11.33,0-18.71-7.13-18.71-16.88c0-9.81,7.49-16.88,17.49-16.88c9.63,0,17.06,6.46,17.06,17
					C645.29,29.67,645.16,30.71,645.1,31.5z M620.18,25.96h16.15c-0.67-4.14-3.78-6.82-8.04-6.82
					C623.96,19.13,620.85,21.75,620.18,25.96z"/>
				<path class="st2" d="M657.1,23.88c0-12.67,9.87-22.06,23.34-22.06c13.4,0,23.34,9.32,23.34,22.06s-9.93,22.06-23.34,22.06
					C666.97,45.94,657.1,36.56,657.1,23.88z M693.78,23.88c0-8.1-5.73-13.65-13.34-13.65s-13.34,5.54-13.34,13.65
					s5.73,13.65,13.34,13.65S693.78,31.99,693.78,23.88z"/>
				<path class="st3" d="M740.27,0v45.21h-9.08v-3.78c-2.38,2.86-5.85,4.26-10.24,4.26c-9.26,0-16.39-6.58-16.39-16.88
					s7.13-16.88,16.39-16.88c4.02,0,7.43,1.28,9.81,3.96V0H740.27z M730.95,28.82c0-5.67-3.66-9.08-8.35-9.08
					c-4.75,0-8.41,3.41-8.41,9.08c0,5.67,3.66,9.08,8.41,9.08C727.29,37.9,730.95,34.49,730.95,28.82z"/>
				<path class="st3" d="M777.56,0v45.21h-9.08v-3.78c-2.38,2.86-5.85,4.26-10.24,4.26c-9.26,0-16.39-6.58-16.39-16.88
					s7.13-16.88,16.39-16.88c4.02,0,7.43,1.28,9.81,3.96V0H777.56z M768.23,28.82c0-5.67-3.66-9.08-8.35-9.08
					c-4.75,0-8.41,3.41-8.41,9.08c0,5.67,3.66,9.08,8.41,9.08C764.58,37.9,768.23,34.49,768.23,28.82z"/>
				<path class="st3" d="M779.5,42.16l3.17-6.82c2.92,1.89,7.37,3.17,11.39,3.17c4.39,0,6.03-1.16,6.03-2.99
					c0-5.36-19.8,0.12-19.8-12.98c0-6.21,5.61-10.6,15.17-10.6c4.51,0,9.5,1.04,12.61,2.86l-3.17,6.76
					c-3.23-1.83-6.46-2.44-9.44-2.44c-4.26,0-6.09,1.34-6.09,3.05c0,5.61,19.8,0.18,19.8,13.1c0,6.09-5.67,10.42-15.48,10.42
					C788.16,45.7,782.55,44.17,779.5,42.16z"/>
			</g>
		</g>
		<polyline class="st2" points="247.99,17.05 265.04,17.05 265.04,0 		"/>
	</g>
	<g>
		<rect x="190.12" y="1.2" class="st3" width="2.33" height="75.59"/>
	</g>
	<g>
		<g>
			<path class="st3" d="M226.47,65.63h-3.12V64.5h7.53v1.13h-3.12v7.97h-1.29V65.63z"/>
			<path class="st3" d="M230.76,70.15c0-2.05,1.52-3.51,3.59-3.51c2.07,0,3.58,1.46,3.58,3.51c0,2.05-1.51,3.52-3.58,3.52
				C232.28,73.67,230.76,72.21,230.76,70.15z M236.66,70.15c0-1.47-0.99-2.42-2.31-2.42s-2.33,0.95-2.33,2.42
				c0,1.47,1,2.43,2.33,2.43S236.66,71.62,236.66,70.15z"/>
			<path class="st3" d="M246.15,63.95v9.65h-1.2V72.5c-0.56,0.78-1.44,1.17-2.46,1.17c-2.01,0-3.48-1.42-3.48-3.52
				c0-2.11,1.47-3.51,3.48-3.51c0.98,0,1.83,0.36,2.41,1.11v-3.8H246.15z M244.91,70.15c0-1.47-1-2.42-2.31-2.42
				c-1.33,0-2.33,0.95-2.33,2.42c0,1.47,1,2.43,2.33,2.43C243.91,72.58,244.91,71.62,244.91,70.15z"/>
			<path class="st3" d="M253.97,69.44v4.16h-1.18v-0.91c-0.42,0.62-1.18,0.99-2.26,0.99c-1.56,0-2.55-0.83-2.55-2.03
				c0-1.1,0.72-2.01,2.77-2.01h1.98v-0.25c0-1.05-0.61-1.66-1.85-1.66c-0.82,0-1.65,0.29-2.18,0.74l-0.52-0.94
				c0.71-0.57,1.74-0.88,2.85-0.88C252.91,66.64,253.97,67.55,253.97,69.44z M252.73,71.49v-0.96h-1.92c-1.23,0-1.59,0.48-1.59,1.07
				c0,0.69,0.57,1.12,1.52,1.12C251.67,72.71,252.41,72.28,252.73,71.49z"/>
			<path class="st3" d="M262.26,66.71l-3.34,7.58c-0.61,1.46-1.4,1.91-2.46,1.91c-0.66,0-1.34-0.22-1.77-0.64l0.53-0.94
				c0.34,0.33,0.77,0.51,1.24,0.51c0.6,0,0.97-0.27,1.31-1.07l0.22-0.48l-3.04-6.88h1.3l2.41,5.51l2.38-5.51H262.26z"/>
			<path class="st3" d="M264.8,64.76c0,0.25-0.04,0.44-0.21,0.92l-0.62,1.82h-0.82l0.48-1.94c-0.33-0.12-0.55-0.42-0.55-0.81
				c0-0.52,0.38-0.88,0.87-0.88S264.8,64.25,264.8,64.76z"/>
			<path class="st3" d="M265.51,72.87l0.52-0.99c0.58,0.42,1.52,0.71,2.42,0.71c1.16,0,1.64-0.35,1.64-0.94
				c0-1.55-4.36-0.21-4.36-2.95c0-1.24,1.11-2.07,2.87-2.07c0.9,0,1.91,0.23,2.51,0.62l-0.53,0.99c-0.62-0.4-1.31-0.55-1.99-0.55
				c-1.09,0-1.62,0.4-1.62,0.95c0,1.63,4.37,0.3,4.37,2.98c0,1.25-1.14,2.04-2.98,2.04C267.21,73.67,266.08,73.32,265.51,72.87z"/>
			<path class="st3" d="M275.83,69.05c0-2.69,2.05-4.65,4.82-4.65c1.4,0,2.63,0.48,3.46,1.42l-0.84,0.82
				c-0.7-0.74-1.56-1.08-2.56-1.08c-2.05,0-3.57,1.48-3.57,3.5c0,2.01,1.52,3.5,3.57,3.5c1,0,1.86-0.35,2.56-1.09l0.84,0.82
				c-0.83,0.94-2.05,1.43-3.47,1.43C277.88,73.7,275.83,71.74,275.83,69.05z"/>
			<path class="st3" d="M287.27,65.63v3.17h4.56v1.12h-4.56v3.68h-1.3v-9.1h6.42v1.13H287.27z"/>
			<path class="st3" d="M293.38,69.05c0-2.67,2.05-4.65,4.85-4.65c2.77,0,4.82,1.98,4.82,4.65c0,2.68-2.05,4.65-4.82,4.65
				C295.43,73.7,293.38,71.71,293.38,69.05z M301.75,69.05c0-2.02-1.51-3.5-3.52-3.5c-2.04,0-3.55,1.48-3.55,3.5
				c0,2.01,1.51,3.5,3.55,3.5C300.24,72.54,301.75,71.06,301.75,69.05z"/>
			<path class="st3" d="M308.13,64.57c0-0.46,0.36-0.82,0.85-0.82c0.48,0,0.84,0.35,0.84,0.79c0,0.47-0.35,0.83-0.84,0.83
				C308.5,65.38,308.13,65.03,308.13,64.57z M308.35,66.71h1.25v6.89h-1.25V66.71z"/>
			<path class="st3" d="M311.11,72.87l0.52-0.99c0.58,0.42,1.52,0.71,2.42,0.71c1.16,0,1.64-0.35,1.64-0.94
				c0-1.55-4.36-0.21-4.36-2.95c0-1.24,1.11-2.07,2.87-2.07c0.9,0,1.91,0.23,2.51,0.62l-0.53,0.99c-0.62-0.4-1.31-0.55-1.99-0.55
				c-1.09,0-1.62,0.4-1.62,0.95c0,1.63,4.37,0.3,4.37,2.98c0,1.25-1.14,2.04-2.98,2.04C312.81,73.67,311.68,73.32,311.11,72.87z"/>
			<path class="st3" d="M321.43,69.05c0-2.69,2.05-4.65,4.82-4.65c1.4,0,2.63,0.48,3.46,1.42l-0.84,0.82
				c-0.7-0.74-1.56-1.08-2.56-1.08c-2.05,0-3.57,1.48-3.57,3.5c0,2.01,1.52,3.5,3.57,3.5c1,0,1.86-0.35,2.56-1.09l0.84,0.82
				c-0.83,0.94-2.05,1.43-3.47,1.43C323.48,73.7,321.43,71.74,321.43,69.05z"/>
			<path class="st3" d="M337.93,69.63v3.96h-1.25v-3.82c0-1.35-0.68-2.01-1.86-2.01c-1.33,0-2.18,0.79-2.18,2.29v3.55h-1.25v-9.65
				h1.25v3.73c0.52-0.66,1.38-1.04,2.43-1.04C336.74,66.64,337.93,67.6,337.93,69.63z"/>
			<path class="st3" d="M345.7,69.44v4.16h-1.18v-0.91c-0.42,0.62-1.18,0.99-2.26,0.99c-1.56,0-2.55-0.83-2.55-2.03
				c0-1.1,0.71-2.01,2.77-2.01h1.98v-0.25c0-1.05-0.61-1.66-1.85-1.66c-0.82,0-1.65,0.29-2.18,0.74l-0.52-0.94
				c0.71-0.57,1.74-0.88,2.85-0.88C344.63,66.64,345.7,67.55,345.7,69.44z M344.45,71.49v-0.96h-1.92c-1.24,0-1.59,0.48-1.59,1.07
				c0,0.69,0.57,1.12,1.52,1.12C343.4,72.71,344.14,72.28,344.45,71.49z"/>
			<path class="st3" d="M354.55,69.63v3.96h-1.25v-3.82c0-1.35-0.68-2.01-1.86-2.01c-1.33,0-2.18,0.79-2.18,2.29v3.55h-1.25v-6.89
				h1.2v1.04c0.51-0.7,1.39-1.11,2.48-1.11C353.37,66.64,354.55,67.6,354.55,69.63z"/>
			<path class="st3" d="M363.5,66.71v5.95c0,2.43-1.24,3.54-3.58,3.54c-1.26,0-2.54-0.35-3.29-1.03l0.6-0.96
				c0.64,0.55,1.64,0.9,2.65,0.9c1.62,0,2.37-0.75,2.37-2.31v-0.55c-0.6,0.71-1.5,1.07-2.48,1.07c-1.99,0-3.5-1.35-3.5-3.34
				s1.51-3.33,3.5-3.33c1.03,0,1.96,0.38,2.55,1.13v-1.07H363.5z M362.28,69.97c0-1.34-0.99-2.24-2.37-2.24
				c-1.39,0-2.38,0.9-2.38,2.24c0,1.33,0.99,2.25,2.38,2.25C361.29,72.22,362.28,71.29,362.28,69.97z"/>
			<path class="st3" d="M365.66,64.57c0-0.46,0.36-0.82,0.85-0.82c0.48,0,0.84,0.35,0.84,0.79c0,0.47-0.35,0.83-0.84,0.83
				C366.02,65.38,365.66,65.03,365.66,64.57z M365.88,66.71h1.25v6.89h-1.25V66.71z"/>
			<path class="st3" d="M376.04,69.63v3.96h-1.25v-3.82c0-1.35-0.68-2.01-1.86-2.01c-1.33,0-2.18,0.79-2.18,2.29v3.55h-1.25v-6.89
				h1.2v1.04c0.51-0.7,1.39-1.11,2.48-1.11C374.86,66.64,376.04,67.6,376.04,69.63z"/>
			<path class="st3" d="M384.99,66.71v5.95c0,2.43-1.24,3.54-3.58,3.54c-1.26,0-2.54-0.35-3.29-1.03l0.6-0.96
				c0.64,0.55,1.64,0.9,2.65,0.9c1.62,0,2.37-0.75,2.37-2.31v-0.55c-0.6,0.71-1.5,1.07-2.48,1.07c-1.99,0-3.5-1.35-3.5-3.34
				s1.51-3.33,3.5-3.33c1.03,0,1.96,0.38,2.55,1.13v-1.07H384.99z M383.76,69.97c0-1.34-0.99-2.24-2.37-2.24
				c-1.39,0-2.38,0.9-2.38,2.24c0,1.33,0.99,2.25,2.38,2.25C382.78,72.22,383.76,71.29,383.76,69.97z"/>
			<path class="st3" d="M394.74,73.19c-0.38,0.32-0.95,0.48-1.51,0.48c-1.39,0-2.18-0.77-2.18-2.16v-3.78h-1.17v-1.03h1.17V65.2
				h1.25v1.51h1.98v1.03h-1.98v3.73c0,0.74,0.39,1.16,1.08,1.16c0.36,0,0.71-0.12,0.97-0.33L394.74,73.19z"/>
			<path class="st3" d="M402.78,69.63v3.96h-1.25v-3.82c0-1.35-0.68-2.01-1.86-2.01c-1.33,0-2.18,0.79-2.18,2.29v3.55h-1.25v-9.65
				h1.25v3.73c0.52-0.66,1.38-1.04,2.43-1.04C401.6,66.64,402.78,67.6,402.78,69.63z"/>
			<path class="st3" d="M411.34,70.57h-5.59c0.16,1.21,1.13,2.02,2.5,2.02c0.81,0,1.48-0.27,1.99-0.83l0.69,0.81
				c-0.62,0.73-1.57,1.12-2.72,1.12c-2.22,0-3.71-1.47-3.71-3.52c0-2.04,1.47-3.51,3.46-3.51s3.41,1.43,3.41,3.55
				C411.36,70.29,411.35,70.45,411.34,70.57z M405.75,69.67h4.42c-0.13-1.16-1-1.98-2.21-1.98
				C406.76,67.69,405.88,68.5,405.75,69.67z"/>
			<path class="st3" d="M418.07,65.63v3.17h4.56v1.12h-4.56v3.68h-1.3v-9.1h6.42v1.13H418.07z"/>
			<path class="st3" d="M431.05,66.71v6.89h-1.18v-1.04c-0.51,0.71-1.37,1.12-2.34,1.12c-1.78,0-2.96-0.97-2.96-3v-3.96h1.25v3.82
				c0,1.35,0.68,2.03,1.86,2.03c1.3,0,2.13-0.81,2.13-2.29v-3.56H431.05z"/>
			<path class="st3" d="M437.3,73.19c-0.38,0.32-0.95,0.48-1.51,0.48c-1.39,0-2.18-0.77-2.18-2.16v-3.78h-1.17v-1.03h1.17V65.2h1.25
				v1.51h1.98v1.03h-1.98v3.73c0,0.74,0.39,1.16,1.08,1.16c0.36,0,0.71-0.12,0.97-0.33L437.3,73.19z"/>
			<path class="st3" d="M445.23,66.71v6.89h-1.18v-1.04c-0.51,0.71-1.37,1.12-2.34,1.12c-1.78,0-2.96-0.97-2.96-3v-3.96h1.25v3.82
				c0,1.35,0.68,2.03,1.86,2.03c1.3,0,2.13-0.81,2.13-2.29v-3.56H445.23z"/>
			<path class="st3" d="M451.31,66.64v1.21c-0.1-0.01-0.2-0.01-0.29-0.01c-1.34,0-2.17,0.82-2.17,2.33v3.43h-1.25v-6.89h1.2v1.16
				C449.24,67.06,450.1,66.64,451.31,66.64z"/>
			<path class="st3" d="M458.98,70.57h-5.59c0.16,1.21,1.13,2.02,2.5,2.02c0.81,0,1.48-0.27,1.99-0.83l0.69,0.81
				c-0.62,0.73-1.57,1.12-2.72,1.12c-2.22,0-3.71-1.47-3.71-3.52c0-2.04,1.47-3.51,3.46-3.51s3.41,1.43,3.41,3.55
				C459.01,70.29,459,70.45,458.98,70.57z M453.39,69.67h4.42c-0.13-1.16-1-1.98-2.21-1.98C454.41,67.69,453.52,68.5,453.39,69.67z"
				/>
			<path class="st3" d="M463.68,69.05c0-2.67,2.05-4.65,4.85-4.65c2.77,0,4.82,1.98,4.82,4.65c0,2.68-2.05,4.65-4.82,4.65
				C465.73,73.7,463.68,71.71,463.68,69.05z M472.05,69.05c0-2.02-1.51-3.5-3.52-3.5c-2.04,0-3.55,1.48-3.55,3.5
				c0,2.01,1.51,3.5,3.55,3.5C470.54,72.54,472.05,71.06,472.05,69.05z"/>
			<path class="st3" d="M481.65,63.95v9.65h-1.2V72.5c-0.56,0.78-1.44,1.17-2.46,1.17c-2.02,0-3.48-1.42-3.48-3.52
				c0-2.11,1.47-3.51,3.48-3.51c0.97,0,1.83,0.36,2.4,1.11v-3.8H481.65z M480.42,70.15c0-1.47-1-2.42-2.31-2.42
				c-1.33,0-2.33,0.95-2.33,2.42c0,1.47,1,2.43,2.33,2.43C479.42,72.58,480.42,71.62,480.42,70.15z"/>
			<path class="st3" d="M490.52,63.95v9.65h-1.2V72.5c-0.56,0.78-1.44,1.17-2.46,1.17c-2.01,0-3.48-1.42-3.48-3.52
				c0-2.11,1.47-3.51,3.48-3.51c0.98,0,1.83,0.36,2.41,1.11v-3.8H490.52z M489.28,70.15c0-1.47-1-2.42-2.31-2.42
				c-1.33,0-2.33,0.95-2.33,2.42c0,1.47,1,2.43,2.33,2.43C488.28,72.58,489.28,71.62,489.28,70.15z"/>
			<path class="st3" d="M492.01,72.87l0.52-0.99c0.58,0.42,1.52,0.71,2.42,0.71c1.16,0,1.64-0.35,1.64-0.94
				c0-1.55-4.35-0.21-4.35-2.95c0-1.24,1.1-2.07,2.87-2.07c0.9,0,1.91,0.23,2.51,0.62l-0.53,0.99c-0.62-0.4-1.31-0.55-1.99-0.55
				c-1.09,0-1.62,0.4-1.62,0.95c0,1.63,4.37,0.3,4.37,2.98c0,1.25-1.14,2.04-2.98,2.04C493.72,73.67,492.59,73.32,492.01,72.87z"/>
			<path class="st3" d="M506.77,73.19c-0.38,0.32-0.95,0.48-1.51,0.48c-1.39,0-2.18-0.77-2.18-2.16v-3.78h-1.17v-1.03h1.17V65.2
				h1.25v1.51h1.98v1.03h-1.98v3.73c0,0.74,0.39,1.16,1.08,1.16c0.36,0,0.71-0.12,0.97-0.33L506.77,73.19z"/>
			<path class="st3" d="M507.41,70.15c0-2.05,1.52-3.51,3.59-3.51c2.07,0,3.58,1.46,3.58,3.51c0,2.05-1.51,3.52-3.58,3.52
				C508.93,73.67,507.41,72.21,507.41,70.15z M513.31,70.15c0-1.47-0.99-2.42-2.31-2.42c-1.33,0-2.33,0.95-2.33,2.42
				c0,1.47,1,2.43,2.33,2.43C512.32,72.58,513.31,71.62,513.31,70.15z"/>
			<path class="st3" d="M526.58,72.46v1.13h-6.6v-9.1h6.42v1.13h-5.12v2.79h4.56v1.1h-4.56v2.94H526.58z"/>
			<path class="st3" d="M527.54,72.87l0.52-0.99c0.58,0.42,1.52,0.71,2.42,0.71c1.16,0,1.64-0.35,1.64-0.94
				c0-1.55-4.36-0.21-4.36-2.95c0-1.24,1.11-2.07,2.87-2.07c0.9,0,1.91,0.23,2.51,0.62l-0.53,0.99c-0.62-0.4-1.31-0.55-1.99-0.55
				c-1.09,0-1.62,0.4-1.62,0.95c0,1.63,4.37,0.3,4.37,2.98c0,1.25-1.14,2.04-2.98,2.04C529.25,73.67,528.12,73.32,527.54,72.87z"/>
			<path class="st3" d="M538.8,73.19c-0.38,0.32-0.95,0.48-1.51,0.48c-1.39,0-2.18-0.77-2.18-2.16v-3.78h-1.17v-1.03h1.17V65.2h1.25
				v1.51h1.98v1.03h-1.98v3.73c0,0.74,0.39,1.16,1.08,1.16c0.36,0,0.71-0.12,0.97-0.33L538.8,73.19z"/>
			<path class="st3" d="M545.77,69.44v4.16h-1.18v-0.91c-0.42,0.62-1.18,0.99-2.26,0.99c-1.56,0-2.55-0.83-2.55-2.03
				c0-1.1,0.71-2.01,2.77-2.01h1.98v-0.25c0-1.05-0.61-1.66-1.85-1.66c-0.82,0-1.65,0.29-2.18,0.74l-0.52-0.94
				c0.71-0.57,1.74-0.88,2.85-0.88C544.7,66.64,545.77,67.55,545.77,69.44z M544.52,71.49v-0.96h-1.92c-1.24,0-1.59,0.48-1.59,1.07
				c0,0.69,0.57,1.12,1.52,1.12C543.47,72.71,544.21,72.28,544.52,71.49z"/>
			<path class="st3" d="M555.22,70.15c0,2.11-1.47,3.52-3.48,3.52c-1.01,0-1.9-0.39-2.46-1.17v1.09h-1.2v-9.65h1.25v3.8
				c0.57-0.74,1.43-1.11,2.41-1.11C553.75,66.64,555.22,68.04,555.22,70.15z M553.96,70.15c0-1.47-1-2.42-2.33-2.42
				c-1.31,0-2.31,0.95-2.31,2.42c0,1.47,1,2.43,2.31,2.43C552.96,72.58,553.96,71.62,553.96,70.15z"/>
			<path class="st3" d="M556.95,63.95h1.25v9.65h-1.25V63.95z"/>
			<path class="st3" d="M560.35,64.57c0-0.46,0.36-0.82,0.85-0.82c0.48,0,0.84,0.35,0.84,0.79c0,0.47-0.35,0.83-0.84,0.83
				C560.72,65.38,560.35,65.03,560.35,64.57z M560.58,66.71h1.25v6.89h-1.25V66.71z"/>
			<path class="st3" d="M563.33,72.87l0.52-0.99c0.58,0.42,1.52,0.71,2.42,0.71c1.16,0,1.64-0.35,1.64-0.94
				c0-1.55-4.36-0.21-4.36-2.95c0-1.24,1.11-2.07,2.87-2.07c0.9,0,1.91,0.23,2.51,0.62l-0.53,0.99c-0.62-0.4-1.31-0.55-1.99-0.55
				c-1.09,0-1.62,0.4-1.62,0.95c0,1.63,4.37,0.3,4.37,2.98c0,1.25-1.14,2.04-2.98,2.04C565.03,73.67,563.9,73.32,563.33,72.87z"/>
			<path class="st3" d="M577.25,69.63v3.96h-1.25v-3.82c0-1.35-0.68-2.01-1.86-2.01c-1.33,0-2.18,0.79-2.18,2.29v3.55h-1.25v-9.65
				h1.25v3.73c0.52-0.66,1.38-1.04,2.43-1.04C576.07,66.64,577.25,67.6,577.25,69.63z"/>
			<path class="st3" d="M585.05,65.63h-3.12V64.5h7.53v1.13h-3.12v7.97h-1.29V65.63z"/>
			<path class="st3" d="M589.34,70.15c0-2.05,1.52-3.51,3.59-3.51s3.58,1.46,3.58,3.51c0,2.05-1.51,3.52-3.58,3.52
				S589.34,72.21,589.34,70.15z M595.25,70.15c0-1.47-0.99-2.42-2.31-2.42s-2.33,0.95-2.33,2.42c0,1.47,1,2.43,2.33,2.43
				S595.25,71.62,595.25,70.15z"/>
			<path class="st3" d="M609.68,69.63v3.96h-1.25v-3.82c0-1.35-0.65-2.01-1.78-2.01c-1.25,0-2.07,0.79-2.07,2.29v3.55h-1.25v-3.82
				c0-1.35-0.65-2.01-1.78-2.01c-1.25,0-2.07,0.79-2.07,2.29v3.55h-1.25v-6.89h1.2v1.03c0.49-0.7,1.34-1.09,2.38-1.09
				c1.05,0,1.94,0.42,2.39,1.27c0.52-0.78,1.48-1.27,2.65-1.27C608.53,66.64,609.68,67.6,609.68,69.63z"/>
			<path class="st3" d="M611.38,70.15c0-2.05,1.52-3.51,3.59-3.51s3.58,1.46,3.58,3.51c0,2.05-1.51,3.52-3.58,3.52
				S611.38,72.21,611.38,70.15z M617.28,70.15c0-1.47-0.99-2.42-2.31-2.42s-2.33,0.95-2.33,2.42c0,1.47,1,2.43,2.33,2.43
				S617.28,71.62,617.28,70.15z"/>
			<path class="st3" d="M623.97,66.64v1.21c-0.1-0.01-0.19-0.01-0.29-0.01c-1.34,0-2.17,0.82-2.17,2.33v3.43h-1.25v-6.89h1.2v1.16
				C621.91,67.06,622.77,66.64,623.97,66.64z"/>
			<path class="st3" d="M629.21,66.64v1.21c-0.1-0.01-0.19-0.01-0.29-0.01c-1.34,0-2.17,0.82-2.17,2.33v3.43h-1.25v-6.89h1.2v1.16
				C627.15,67.06,628.01,66.64,629.21,66.64z"/>
			<path class="st3" d="M630.05,70.15c0-2.05,1.52-3.51,3.59-3.51c2.07,0,3.58,1.46,3.58,3.51c0,2.05-1.51,3.52-3.58,3.52
				C631.57,73.67,630.05,72.21,630.05,70.15z M635.95,70.15c0-1.47-0.99-2.42-2.31-2.42s-2.33,0.95-2.33,2.42
				c0,1.47,1,2.43,2.33,2.43S635.95,71.62,635.95,70.15z"/>
			<path class="st3" d="M649.17,66.71l-2.57,6.89h-1.2l-1.99-5.23l-2.01,5.23h-1.2l-2.56-6.89h1.18l2,5.49l2.08-5.49h1.05l2.04,5.51
				l2.05-5.51H649.17z"/>
			<path class="st3" d="M651.81,64.76c0,0.25-0.04,0.44-0.21,0.92l-0.62,1.82h-0.82l0.48-1.94c-0.32-0.12-0.55-0.42-0.55-0.81
				c0-0.52,0.38-0.88,0.87-0.88S651.81,64.25,651.81,64.76z"/>
			<path class="st3" d="M652.51,72.87l0.52-0.99c0.58,0.42,1.52,0.71,2.42,0.71c1.16,0,1.64-0.35,1.64-0.94
				c0-1.55-4.35-0.21-4.35-2.95c0-1.24,1.1-2.07,2.87-2.07c0.9,0,1.91,0.23,2.51,0.62l-0.53,0.99c-0.62-0.4-1.31-0.55-1.99-0.55
				c-1.09,0-1.62,0.4-1.62,0.95c0,1.63,4.37,0.3,4.37,2.98c0,1.25-1.14,2.04-2.98,2.04C654.21,73.67,653.08,73.32,652.51,72.87z"/>
			<path class="st3" d="M663.57,64.5h3.83c2.92,0,4.91,1.85,4.91,4.55s-1.99,4.55-4.91,4.55h-3.83V64.5z M667.33,72.46
				c2.25,0,3.69-1.38,3.69-3.42s-1.44-3.42-3.69-3.42h-2.46v6.84H667.33z"/>
			<path class="st3" d="M673.91,64.57c0-0.46,0.36-0.82,0.85-0.82c0.48,0,0.84,0.35,0.84,0.79c0,0.47-0.35,0.83-0.84,0.83
				C674.27,65.38,673.91,65.03,673.91,64.57z M674.13,66.71h1.25v6.89h-1.25V66.71z"/>
			<path class="st3" d="M684.35,66.71v5.95c0,2.43-1.24,3.54-3.58,3.54c-1.26,0-2.54-0.35-3.29-1.03l0.6-0.96
				c0.64,0.55,1.64,0.9,2.65,0.9c1.62,0,2.37-0.75,2.37-2.31v-0.55c-0.6,0.71-1.5,1.07-2.48,1.07c-1.99,0-3.5-1.35-3.5-3.34
				s1.51-3.33,3.5-3.33c1.03,0,1.96,0.38,2.55,1.13v-1.07H684.35z M683.13,69.97c0-1.34-0.99-2.24-2.37-2.24
				c-1.39,0-2.38,0.9-2.38,2.24c0,1.33,0.99,2.25,2.38,2.25C682.14,72.22,683.13,71.29,683.13,69.97z"/>
			<path class="st3" d="M686.5,64.57c0-0.46,0.36-0.82,0.85-0.82c0.48,0,0.84,0.35,0.84,0.79c0,0.47-0.35,0.83-0.84,0.83
				C686.87,65.38,686.5,65.03,686.5,64.57z M686.73,66.71h1.25v6.89h-1.25V66.71z"/>
			<path class="st3" d="M694.23,73.19c-0.38,0.32-0.95,0.48-1.51,0.48c-1.39,0-2.18-0.77-2.18-2.16v-3.78h-1.17v-1.03h1.17V65.2
				h1.25v1.51h1.98v1.03h-1.98v3.73c0,0.74,0.39,1.16,1.08,1.16c0.36,0,0.71-0.12,0.97-0.33L694.23,73.19z"/>
			<path class="st3" d="M701.19,69.44v4.16h-1.18v-0.91c-0.42,0.62-1.18,0.99-2.26,0.99c-1.56,0-2.55-0.83-2.55-2.03
				c0-1.1,0.71-2.01,2.77-2.01h1.98v-0.25c0-1.05-0.61-1.66-1.85-1.66c-0.82,0-1.65,0.29-2.18,0.74l-0.52-0.94
				c0.71-0.57,1.74-0.88,2.85-0.88C700.13,66.64,701.19,67.55,701.19,69.44z M699.95,71.49v-0.96h-1.92c-1.24,0-1.59,0.48-1.59,1.07
				c0,0.69,0.57,1.12,1.52,1.12C698.89,72.71,699.63,72.28,699.95,71.49z"/>
			<path class="st3" d="M703.51,63.95h1.25v9.65h-1.25V63.95z"/>
			<path class="st3" d="M706.69,69.49h3.5v1.08h-3.5V69.49z"/>
			<path class="st3" d="M711.61,70.15c0-2.05,1.52-3.51,3.59-3.51c2.07,0,3.58,1.46,3.58,3.51c0,2.05-1.51,3.52-3.58,3.52
				C713.13,73.67,711.61,72.21,711.61,70.15z M717.51,70.15c0-1.47-0.99-2.42-2.31-2.42s-2.33,0.95-2.33,2.42
				c0,1.47,1,2.43,2.33,2.43S717.51,71.62,717.51,70.15z"/>
			<path class="st3" d="M727.04,69.63v3.96h-1.25v-3.82c0-1.35-0.68-2.01-1.86-2.01c-1.33,0-2.18,0.79-2.18,2.29v3.55h-1.25v-6.89
				h1.2v1.04c0.51-0.7,1.39-1.11,2.48-1.11C725.85,66.64,727.04,67.6,727.04,69.63z"/>
			<path class="st3" d="M729.35,63.95h1.25v9.65h-1.25V63.95z"/>
			<path class="st3" d="M739.08,66.71l-3.34,7.58c-0.61,1.46-1.4,1.91-2.46,1.91c-0.66,0-1.34-0.22-1.77-0.64l0.53-0.94
				c0.34,0.33,0.77,0.51,1.23,0.51c0.6,0,0.98-0.27,1.31-1.07l0.22-0.48l-3.04-6.88h1.3l2.41,5.51l2.38-5.51H739.08z"/>
			<path class="st3" d="M750.53,72.46v1.13h-6.6v-9.1h6.42v1.13h-5.12v2.79h4.56v1.1h-4.56v2.94H750.53z"/>
			<path class="st3" d="M758.99,69.63v3.96h-1.25v-3.82c0-1.35-0.68-2.01-1.86-2.01c-1.33,0-2.18,0.79-2.18,2.29v3.55h-1.25v-6.89
				h1.2v1.04c0.51-0.7,1.39-1.11,2.48-1.11C757.81,66.64,758.99,67.6,758.99,69.63z"/>
			<path class="st3" d="M765.18,73.19c-0.38,0.32-0.95,0.48-1.51,0.48c-1.39,0-2.18-0.77-2.18-2.16v-3.78h-1.17v-1.03h1.17V65.2
				h1.25v1.51h1.98v1.03h-1.98v3.73c0,0.74,0.39,1.16,1.08,1.16c0.36,0,0.71-0.12,0.97-0.33L765.18,73.19z"/>
			<path class="st3" d="M772.66,70.57h-5.59c0.16,1.21,1.13,2.02,2.5,2.02c0.81,0,1.48-0.27,1.99-0.83l0.69,0.81
				c-0.62,0.73-1.57,1.12-2.72,1.12c-2.22,0-3.71-1.47-3.71-3.52c0-2.04,1.47-3.51,3.46-3.51s3.41,1.43,3.41,3.55
				C772.68,70.29,772.67,70.45,772.66,70.57z M767.07,69.67h4.42c-0.13-1.16-1-1.98-2.21-1.98C768.08,67.69,767.2,68.5,767.07,69.67
				z"/>
			<path class="st3" d="M778.12,66.64v1.21c-0.1-0.01-0.2-0.01-0.29-0.01c-1.34,0-2.17,0.82-2.17,2.33v3.43h-1.25v-6.89h1.2v1.16
				C776.05,67.06,776.91,66.64,778.12,66.64z"/>
			<path class="st3" d="M786.79,70.15c0,2.12-1.47,3.52-3.48,3.52c-0.97,0-1.83-0.38-2.41-1.12v3.56h-1.25v-9.41h1.2v1.09
				c0.56-0.77,1.44-1.16,2.46-1.16C785.32,66.64,786.79,68.04,786.79,70.15z M785.53,70.15c0-1.46-1-2.42-2.33-2.42
				c-1.31,0-2.31,0.96-2.31,2.42c0,1.47,1,2.43,2.31,2.43C784.52,72.58,785.53,71.62,785.53,70.15z"/>
			<path class="st3" d="M792.22,66.64v1.21c-0.1-0.01-0.2-0.01-0.29-0.01c-1.34,0-2.17,0.82-2.17,2.33v3.43h-1.25v-6.89h1.2v1.16
				C790.15,67.06,791.01,66.64,792.22,66.64z"/>
			<path class="st3" d="M793.53,64.57c0-0.46,0.36-0.82,0.84-0.82c0.48,0,0.85,0.35,0.85,0.79c0,0.47-0.35,0.83-0.85,0.83
				C793.9,65.38,793.53,65.03,793.53,64.57z M793.75,66.71H795v6.89h-1.25V66.71z"/>
			<path class="st3" d="M796.51,72.87l0.52-0.99c0.58,0.42,1.52,0.71,2.42,0.71c1.16,0,1.64-0.35,1.64-0.94
				c0-1.55-4.35-0.21-4.35-2.95c0-1.24,1.1-2.07,2.87-2.07c0.9,0,1.91,0.23,2.51,0.62l-0.53,0.99c-0.62-0.4-1.31-0.55-1.99-0.55
				c-1.09,0-1.62,0.4-1.62,0.95c0,1.63,4.37,0.3,4.37,2.98c0,1.25-1.14,2.04-2.98,2.04C798.21,73.67,797.08,73.32,796.51,72.87z"/>
			<path class="st3" d="M810.1,70.57h-5.59c0.16,1.21,1.13,2.02,2.5,2.02c0.81,0,1.48-0.27,1.99-0.83l0.69,0.81
				c-0.62,0.73-1.57,1.12-2.72,1.12c-2.22,0-3.71-1.47-3.71-3.52c0-2.04,1.47-3.51,3.46-3.51s3.41,1.43,3.41,3.55
				C810.12,70.29,810.11,70.45,810.1,70.57z M804.51,69.67h4.42c-0.13-1.16-1-1.98-2.21-1.98C805.52,67.69,804.63,68.5,804.51,69.67
				z"/>
			<path class="st3" d="M811.26,72.78c0-0.52,0.4-0.88,0.88-0.88c0.47,0,0.86,0.36,0.86,0.88c0,0.52-0.39,0.9-0.86,0.9
				C811.67,73.67,811.26,73.3,811.26,72.78z"/>
		</g>
	</g>
</g>
</svg>
